<?xml version="1.0" standalone="no"?>
<!DOCTYPE svg PUBLIC "-//W3C//DTD SVG 20010904//EN"
 "http://www.w3.org/TR/2001/REC-SVG-20010904/DTD/svg10.dtd">
<svg version="1.0" xmlns="http://www.w3.org/2000/svg"
 width="1024.000000pt" height="1024.000000pt" viewBox="0 0 1024.000000 1024.000000"
 preserveAspectRatio="xMidYMid meet">

<g transform="translate(0.000000,1024.000000) scale(0.100000,-0.100000)"
fill="#000000" stroke="none">
<path d="M5251 7667 c-275 -793 -581 -1687 -581 -1696 0 -11 -238 -18 -1015
-31 -870 -15 -1216 -22 -1211 -27 2 -2 201 -24 442 -49 401 -40 1054 -107
1795 -184 157 -17 290 -30 295 -30 5 0 104 265 219 590 116 324 212 590 215
590 3 0 10 -17 17 -38 24 -76 416 -1177 422 -1184 5 -5 965 -87 1041 -88 23
-1 22 -4 -20 -42 -25 -22 -201 -173 -392 -334 -191 -162 -350 -299 -353 -304
-6 -9 55 -188 296 -874 65 -187 117 -341 115 -343 -3 -3 -697 444 -934 602
l-102 68 -23 -20 c-36 -32 -963 -871 -1212 -1097 -345 -312 -655 -598 -655
-602 0 -6 302 203 1282 888 322 226 590 410 595 409 10 -1 872 -619 1390 -998
205 -149 373 -270 373 -267 0 6 -152 522 -399 1353 -111 371 -201 679 -201
685 0 6 91 77 203 157 111 80 481 348 822 594 341 247 644 465 673 486 l52 37
-112 6 c-62 3 -455 10 -873 16 -418 5 -870 13 -1005 16 l-245 7 -92 266 c-50
146 -218 635 -372 1085 -154 451 -282 820 -283 822 -2 1 -77 -210 -167 -469z"/>
<path d="M2165 5352 c-165 -8 -257 -44 -340 -133 -105 -114 -128 -185 -187
-589 -62 -427 -57 -539 27 -637 51 -59 119 -86 236 -91 133 -6 194 13 265 80
l54 51 0 -62 0 -61 109 0 108 0 16 118 c9 64 30 209 46 322 16 113 31 224 34
248 l5 42 -213 0 c-240 0 -218 8 -230 -85 -3 -27 -8 -62 -11 -77 l-5 -26 70 1
c71 2 71 2 71 -25 0 -49 -29 -176 -49 -216 -31 -61 -74 -92 -128 -92 -36 0
-50 6 -73 28 -16 16 -31 44 -35 63 -9 53 108 809 132 851 43 74 131 100 178
53 30 -29 31 -56 10 -175 -8 -47 -15 -91 -15 -97 0 -10 38 -13 159 -13 l159 0
12 53 c6 28 14 95 17 147 5 84 3 101 -17 148 -28 65 -94 125 -161 147 -55 19
-169 31 -244 27z"/>
<path d="M2839 4916 l75 -425 -42 -278 c-23 -153 -42 -284 -42 -291 0 -17 309
-16 315 1 3 7 25 140 50 295 l45 284 104 211 c57 117 147 305 199 420 l95 207
-156 -2 -155 -3 -86 -229 c-62 -165 -87 -223 -93 -210 -6 17 -58 399 -58 432
0 9 -39 12 -163 12 l-163 0 75 -424z"/>
<path d="M3755 5043 c-26 -164 -78 -482 -115 -708 -37 -225 -64 -414 -60 -418
4 -5 58 -7 121 -5 l113 3 18 115 c10 63 43 252 73 420 30 168 57 329 61 358 4
29 8 51 10 50 1 -2 12 -210 24 -463 12 -253 23 -465 24 -470 2 -6 46 -10 106
-10 l103 0 154 455 c84 250 153 449 153 442 0 -19 -89 -822 -96 -864 l-6 -38
121 0 120 0 6 33 c3 17 16 124 30 237 14 113 52 417 85 675 33 259 60 473 60
478 0 4 -80 7 -177 7 l-178 0 -66 -198 c-89 -264 -219 -625 -230 -637 -5 -5
-9 16 -9 50 0 33 -7 223 -17 423 l-17 362 -182 0 -181 0 -48 -297z"/>
</g>
</svg>
